<svg xmlns="http://www.w3.org/2000/svg" viewBox="0 0 50 50" width="50" height="50"><path style="line-height:normal;text-indent:0;text-align:start;text-decoration-line:none;text-decoration-style:solid;text-decoration-color:#000;text-transform:none;block-progression:tb;isolation:auto;mix-blend-mode:normal" d="M12 0c-1.093 0-2 .907-2 2v2H4c-.522 0-1.055.191-1.432.568C2.191 4.945 2 5.478 2 6v40c0 .522.191 1.055.568 1.432.377.377.91.568 1.432.568h42c.522 0 1.055-.191 1.432-.568.377-.377.568-.91.568-1.432V6c0-.522-.191-1.055-.568-1.432C47.055 4.191 46.522 4 46 4h-6V2c0-1.093-.907-2-2-2h-2c-1.093 0-2 .907-2 2v2H16V2c0-1.093-.907-2-2-2h-2zm0 2h2v6h-2V2zm24 0h2v6h-2V2zM4 6h6v2c0 1.093.907 2 2 2h2c1.093 0 2-.907 2-2V6h18v2c0 1.093.907 2 2 2h2c1.093 0 2-.907 2-2V6h6v7H4V6zm0 9h42v31H4V15zm6 4v23h30V19H10zm2 2h5v5h-5v-5zm7 0h5v5h-5v-5zm7 0h5v5h-5v-5zm7 0h5v5h-5v-5zm-21 7h5v5h-5v-5zm7 0h5v5h-5v-5zm7 0h5v5h-5v-5zm7 0h5v5h-5v-5zm-21 7h5v5h-5v-5zm7 0h5v5h-5v-5zm7 0h5v5h-5v-5zm7 0h5v5h-5v-5z"/></svg>