<?xml version="1.0" encoding="utf-8"?>
<!-- Generator: Adobe Illustrator 17.1.0, SVG Export Plug-In . SVG Version: 6.00 Build 0)  -->
<!DOCTYPE svg PUBLIC "-//W3C//DTD SVG 1.1//EN" "http://www.w3.org/Graphics/SVG/1.1/DTD/svg11.dtd">
<svg version="1.1" id="Capa_1" xmlns="http://www.w3.org/2000/svg" xmlns:xlink="http://www.w3.org/1999/xlink" x="0px" y="0px"
	 viewBox="-12.8 -12.3 56.5 56.5" enable-background="new -12.8 -12.3 56.5 56.5" xml:space="preserve">
<path fill="#FFFFFF" stroke="#A9A9A9" stroke-width="3" stroke-miterlimit="10" d="M36.9,42.7H-6c-2.9,0-5.3-2.4-5.3-5.3v-43
	c0-2.9,2.4-5.3,5.3-5.3h43c2.9,0,5.3,2.4,5.3,5.3v43C42.2,40.4,39.9,42.7,36.9,42.7z"/>
<g>
	<path fill="#A9A9A9" d="M15,0.3c5.4,0,10.8,2.5,10.8,8.5c0,5.5-6.3,7.6-7.7,9.6c-1,1.5-0.7,3.6-3.5,3.6c-1.8,0-2.7-1.5-2.7-2.8
		c0-5,7.4-6.2,7.4-10.3c0-2.3-1.5-3.6-4.1-3.6c-5.4,0-3.3,5.6-7.4,5.6c-1.5,0-2.8-0.9-2.8-2.6C5.1,4,9.9,0.3,15,0.3z M14.8,24.7
		c1.9,0,3.5,1.6,3.5,3.5s-1.6,3.5-3.5,3.5s-3.5-1.6-3.5-3.5C11.4,26.3,12.9,24.7,14.8,24.7z"/>
</g>
</svg>
