<svg xmlns="http://www.w3.org/2000/svg" width="50" height="50" viewBox="0 0 50 50"><path style="text-indent:0;text-align:start;line-height:normal;text-transform:none;block-progression:tb;-inkscape-font-specification:Bitstream Vera Sans" d="M25 0C11.205 0 0 11.205 0 25s11.205 25 25 25 25-11.205 25-25S38.795 0 25 0zm0 2c12.714 0 23 10.286 23 23S37.714 48 25 48 2 37.714 2 25 12.286 2 25 2zm-.094 2.969a1 1 0 0 0-.125.031A1 1 0 0 0 24 6v16.188c-1.158.415-2 1.51-2 2.812 0 .454.132.865.313 1.25l-6.032 6.031a1.016 1.016 0 1 0 1.438 1.438l6.031-6.032c.385.18.796.313 1.25.313a3 3 0 0 0 3-3c0-1.301-.842-2.397-2-2.813V6a1 1 0 0 0-1.094-1.031z" color="#000" overflow="visible" font-family="Bitstream Vera Sans"/></svg>