<svg xmlns="http://www.w3.org/2000/svg" viewBox="-12.8 -12.3 56.5 56.5"><path fill="#FFF" stroke="#A9A9A9" stroke-width="3" stroke-miterlimit="10" d="M36.9 42.7H-6c-2.9 0-5.3-2.4-5.3-5.3v-43c0-2.9 2.4-5.3 5.3-5.3h43c2.9 0 5.3 2.4 5.3 5.3v43c-.1 3-2.4 5.3-5.4 5.3z"/><path fill="#A9A9A9" d="M15 .3c5.4 0 10.8 2.5 10.8 8.5 0 5.5-6.3 7.6-7.7 9.6-1 1.5-.7 3.6-3.5 3.6-1.8 0-2.7-1.5-2.7-2.8 0-5 7.4-6.2 7.4-10.3 0-2.3-1.5-3.6-4.1-3.6-5.4 0-3.3 5.6-7.4 5.6C6.3 10.9 5 10 5 8.3c.1-4.3 4.9-8 10-8zm-.2 24.4c1.9 0 3.5 1.6 3.5 3.5s-1.6 3.5-3.5 3.5-3.5-1.6-3.5-3.5c.1-1.9 1.6-3.5 3.5-3.5z"/></svg>